<?xml version="1.0" standalone="no"?><!DOCTYPE svg PUBLIC "-//W3C//DTD SVG 1.1//EN" "http://www.w3.org/Graphics/SVG/1.1/DTD/svg11.dtd"><svg t="1580890528143" class="icon" viewBox="0 0 1024 1024" version="1.1" xmlns="http://www.w3.org/2000/svg" p-id="851" xmlns:xlink="http://www.w3.org/1999/xlink" width="200" height="200"><defs><style type="text/css"></style></defs><path d="M791.678338 279.937662v39.896104h-574.437403v-39.896104z" fill="#BE383D" p-id="852"></path><path d="M518.270338 299.885714v326.104104h-39.896104V299.885714z" fill="#BE383D" p-id="853"></path><path d="M773.252987 227.407792H234.309818a19.948052 19.948052 0 0 0-19.203324 14.535481l-114.608208 406.607792a19.948052 19.948052 0 0 0 10.64561 23.432312l253.107533 120.073974 1.216831 0.531948a19.948052 19.948052 0 0 0 22.308571-5.379325l114.834286-130.466909 107.220779 129.981506a19.948052 19.948052 0 0 0 23.339221 5.605403l276.300467-120.073974a19.948052 19.948052 0 0 0 11.077819-24.296727l-128.265974-406.607792a19.948052 19.948052 0 0 0-19.017143-13.943689z m-14.628571 39.889455l118.458181 375.528727-246.045922 106.921558-112.553558-136.451324-0.864416-0.977455a19.948052 19.948052 0 0 0-29.496519 0.492052l-120.366546 136.750546-224.302545-106.402909 105.950753-375.861195h509.220572z" fill="#0B4FD6" p-id="854"></path></svg>